<svg xmlns="http://www.w3.org/2000/svg" xmlns:xlink="http://www.w3.org/1999/xlink" width="612pt" height="792pt" viewBox="0 0 612 792" version="1.1">
<g id="surface1">
<path style=" stroke:none;fill-rule:evenodd;fill:rgb(92.576599%,0.392151%,16.479492%);fill-opacity:1;" d="M 216 215.964844 L 396 215.964844 L 396 395.964844 L 216 395.964844 L 216 215.964844 "/>
<path style=" stroke:none;fill-rule:evenodd;fill:rgb(100%,100%,100%);fill-opacity:1;" d="M 313.214844 299.863281 L 313.214844 298.246094 C 308.144531 298.246094 303.847656 296.363281 303.847656 287.824219 L 303.847656 266.054688 L 329.992188 266.054688 L 329.992188 288.136719 C 329.992188 296.8125 325.316406 298.128906 320.625 298.128906 L 320.625 299.863281 L 374.898438 299.863281 L 377.847656 277.9375 L 376.628906 277.9375 C 373.722656 286.242188 365.535156 297.628906 353.003906 297.628906 L 341.90625 297.628906 L 341.90625 265.949219 C 354.527344 266.109375 358.164063 273.171875 360.171875 281.484375 L 361.527344 281.484375 L 357.4375 248.226563 L 356.1875 248.226563 C 355.8125 256.15625 354.960938 263.679688 341.90625 263.753906 L 341.90625 232.921875 L 350.304688 232.921875 C 362.835938 232.921875 371.023438 244.308594 373.929688 252.613281 L 375.144531 252.617188 L 372.195313 230.691406 L 320.625 230.691406 L 320.625 232.425781 C 325.316406 232.425781 329.992188 233.738281 329.992188 242.414063 L 329.992188 263.820313 L 303.847656 263.820313 L 303.847656 242.730469 C 303.847656 234.1875 308.144531 232.308594 313.214844 232.308594 L 313.214844 230.691406 L 237.132813 230.691406 L 234.183594 252.617188 L 235.398438 252.613281 C 238.304688 244.308594 249.097656 232.3125 258.578125 232.3125 L 258.578125 287.824219 C 258.578125 295.527344 252.445313 298.246094 247.371094 298.246094 L 247.371094 299.863281 L 270.492188 299.863281 L 270.492188 232.3125 C 286.113281 232.3125 291.578125 239.871094 291.933594 250.554688 L 291.933594 287.824219 C 291.933594 295.527344 285.800781 298.246094 280.726563 298.246094 L 280.726563 299.863281 L 313.214844 299.863281 "/>
<path style=" stroke:none;fill-rule:evenodd;fill:rgb(100%,100%,100%);fill-opacity:1;" d="M 242.722656 312.066406 L 230.496094 312.066406 L 230.496094 313.683594 C 235.425781 313.683594 241.605469 316.402344 241.605469 324.105469 L 241.605469 369.199219 C 241.605469 376.902344 235.472656 379.621094 230.398438 379.621094 L 230.398438 381.238281 L 255.390625 381.238281 L 255.390625 379.621094 C 251.46875 379.621094 244.289063 377.738281 244.289063 369.199219 L 244.289063 326.691406 L 266.082031 374.3125 L 267.09375 374.3125 L 288.574219 324.144531 L 288.574219 369.011719 C 288.574219 377.691406 281.753906 379.503906 277.511719 379.503906 L 277.511719 381.238281 L 333.675781 381.238281 L 336.625 359.3125 L 335.40625 359.3125 C 332.5 367.621094 324.3125 379.007813 311.78125 379.007813 L 300.789063 379.007813 L 300.789063 347.324219 C 313.324219 347.523438 316.945313 354.570313 318.949219 362.859375 L 320.304688 362.859375 L 316.214844 329.601563 L 314.964844 329.601563 C 314.589844 337.511719 313.742188 345.015625 300.789063 345.128906 L 300.789063 314.296875 L 307.304688 314.296875 C 322.285156 314.296875 326 326.230469 326.8125 334.058594 L 328.039063 334.058594 C 329.03125 325.1875 332.878906 313.925781 346.304688 313.925781 L 346.304688 381.238281 L 369.53125 381.238281 L 369.53125 379.621094 C 364.457031 379.621094 358.324219 376.902344 358.324219 369.199219 L 358.324219 313.6875 C 370.136719 313.6875 378.664063 328.535156 380.371094 334.058594 L 381.601563 334.058594 L 379.085938 312.066406 L 299.214844 312.066406 C 293.679688 312.066406 289.894531 314.796875 287.867188 319.554688 L 271.738281 357.460938 L 253.882813 318.234375 C 252.457031 315.117188 248.265625 312.066406 242.722656 312.066406 "/>
</g>
</svg>